<svg width="38" height="37" viewBox="0 0 38 37" fill="none" xmlns="http://www.w3.org/2000/svg">
<g style="mix-blend-mode:darken">
<line x1="7" y1="28.5" x2="34" y2="28.5" stroke="#175151" stroke-width="3"/>
</g>
<path d="M15.1621 12.7837V19.5513C15.1576 20.4901 14.8613 21.258 14.2734 21.855C13.6901 22.452 12.8971 22.787 11.8945 22.8599L11.5459 22.8736C10.4567 22.8736 9.58854 22.5796 8.94141 21.9917C8.29427 21.4038 7.96615 20.5949 7.95703 19.565V12.7837H9.25586V19.5239C9.25586 20.244 9.4541 20.8045 9.85059 21.2056C10.2471 21.6021 10.8122 21.8003 11.5459 21.8003C12.2887 21.8003 12.8561 21.6021 13.248 21.2056C13.6445 20.8091 13.8428 20.2508 13.8428 19.5308V12.7837H15.1621ZM20.8838 18.7105H18.5459V22.7368H17.2266V12.7837H20.5215C21.6426 12.7837 22.5039 13.0389 23.1055 13.5493C23.7116 14.0598 24.0146 14.8026 24.0146 15.7779C24.0146 16.3976 23.846 16.9377 23.5088 17.398C23.1761 17.8583 22.7113 18.2023 22.1143 18.4302L24.4521 22.6548V22.7368H23.0439L20.8838 18.7105ZM18.5459 17.6372H20.5625C21.2142 17.6372 21.7314 17.4686 22.1143 17.1314C22.5016 16.7941 22.6953 16.343 22.6953 15.7779C22.6953 15.1626 22.5107 14.6909 22.1416 14.3628C21.777 14.0347 21.2484 13.8683 20.5557 13.8638H18.5459V17.6372ZM27.1797 21.6636H31.8965V22.7368H25.8604V12.7837H27.1797V21.6636Z" fill="#17BEBB"/>
</svg>
